<svg width="20" height="20" viewBox="0 0 20 20" fill="none" xmlns="http://www.w3.org/2000/svg">
<path d="M17 11.586V8C17 4.783 14.815 2.073 11.855 1.258C11.562 0.52 10.846 0 10 0C9.154 0 8.438 0.52 8.145 1.258C5.185 2.074 3 4.783 3 8V11.586L1.293 13.293C1.19996 13.3857 1.12617 13.4959 1.07589 13.6172C1.0256 13.7386 0.999811 13.8687 1 14V16C1 16.2652 1.10536 16.5196 1.29289 16.7071C1.48043 16.8946 1.73478 17 2 17H18C18.2652 17 18.5196 16.8946 18.7071 16.7071C18.8946 16.5196 19 16.2652 19 16V14C19.0002 13.8687 18.9744 13.7386 18.9241 13.6172C18.8738 13.4959 18.8 13.3857 18.707 13.293L17 11.586ZM17 15H3V14.414L4.707 12.707C4.80004 12.6143 4.87383 12.5041 4.92412 12.3828C4.9744 12.2614 5.00019 12.1313 5 12V8C5 5.243 7.243 3 10 3C12.757 3 15 5.243 15 8V12C15 12.266 15.105 12.52 15.293 12.707L17 14.414V15ZM10 20C10.6193 20.0008 11.2235 19.8086 11.7285 19.4502C12.2335 19.0917 12.6143 18.5849 12.818 18H7.182C7.38566 18.5849 7.76648 19.0917 8.27151 19.4502C8.77654 19.8086 9.3807 20.0008 10 20Z" fill="black"/>
</svg>
