<svg width="107" height="113" viewBox="0 0 107 113" fill="none" xmlns="http://www.w3.org/2000/svg">
<path d="M48.6973 0.677002C55.4516 -0.421433 61.8486 3.68919 63.7754 10.0452L63.9023 10.4641L64.334 10.3938L85.1602 6.99927C89.6525 6.26766 93.8869 9.30716 94.6201 13.7844L97.9229 33.9475C90.2982 35.4553 85.1924 42.7365 86.4541 50.4465C87.716 58.1601 94.8825 63.4373 102.59 62.4485L105.893 82.6135L105.912 82.7356C106.569 87.1664 103.542 91.3193 99.0918 92.0442L83.5459 94.5784L76.6611 95.6995L76.3193 95.7551L76.251 96.094L73.5908 109.219L73.4717 109.807L74.0713 109.819H74.0908C74.1046 109.819 74.126 109.82 74.1533 109.821C74.208 109.822 74.2892 109.825 74.3926 109.829C74.5997 109.838 74.8972 109.852 75.2549 109.876C75.972 109.925 76.9266 110.014 77.8867 110.172C78.8536 110.331 79.7965 110.554 80.5039 110.864C81.2516 111.19 81.5483 111.528 81.5859 111.811V111.812C81.5875 111.82 81.6157 111.88 81.4121 111.999C81.1924 112.128 80.8192 112.243 80.29 112.329C79.2451 112.499 77.7884 112.525 76.2646 112.478C74.749 112.431 73.197 112.313 71.9727 112.206C71.3605 112.153 70.8316 112.103 70.4297 112.066C70.281 112.052 70.1443 112.04 70.0254 112.03C70.0322 111.774 70.0667 111.399 70.127 110.918C70.2535 109.909 70.4859 108.497 70.7734 106.902C71.348 103.714 72.1368 99.8263 72.7178 97.0334L72.8662 96.3206L72.1475 96.4377L48.1953 100.34L47.6885 100.423L47.7852 100.928C48.2322 103.263 48.7692 106.174 49.1309 108.499C49.312 109.664 49.4477 110.67 49.5068 111.381C49.5296 111.654 49.535 111.872 49.5342 112.031C49.4107 112.042 49.2664 112.054 49.1094 112.069C48.7076 112.106 48.1801 112.156 47.5684 112.209C46.3442 112.316 44.792 112.434 43.2764 112.481C41.7528 112.528 40.2961 112.502 39.251 112.332C38.7218 112.246 38.3478 112.131 38.1279 112.002C37.9219 111.881 37.9531 111.821 37.9541 111.814C37.9917 111.531 38.2884 111.193 39.0361 110.866C39.7435 110.557 40.6865 110.334 41.6533 110.175C42.6135 110.017 43.5681 109.928 44.2852 109.879C44.643 109.855 44.9403 109.841 45.1475 109.832C45.2509 109.828 45.332 109.825 45.3867 109.823C45.4141 109.823 45.4355 109.822 45.4492 109.822H45.4688L46.0498 109.81L45.9512 109.238L44.6172 101.426L44.5332 100.938L44.0439 101.017L30.0791 103.292C25.5868 104.024 21.3523 100.984 20.6191 96.5071L17.2363 75.8586L17.1553 75.3665L16.6631 75.4465C9.31245 76.6432 2.37899 71.668 1.17969 64.3401C-0.0221819 57.0098 4.9633 50.0972 12.3164 48.9006L12.8096 48.8206L12.7295 48.3264L9.34668 27.678C8.61375 23.2009 11.6584 18.977 16.1504 18.2454L36.9766 14.8508L37.4092 14.7805L37.3955 14.342C37.197 7.90849 41.6512 2.14902 48.0703 0.794189L48.6973 0.677002ZM72.2227 62.7278C71.1739 61.6819 69.4746 61.6819 68.4258 62.7278C65.1108 66.034 60.71 67.8527 56.0293 67.8528C51.3486 67.8528 46.9479 66.0339 43.6328 62.7278C42.584 61.6818 40.8838 61.6818 39.835 62.7278C38.851 63.7092 38.7893 65.2629 39.6504 66.3157L39.835 66.5188C44.1622 70.8374 49.9156 73.2141 56.0293 73.2141C62.143 73.214 67.8957 70.8342 72.2227 66.5188C73.2722 65.472 73.2722 63.7745 72.2227 62.7278ZM41.7354 48.6838C39.5547 48.6838 37.7881 50.4467 37.7881 52.6213C37.7883 54.7989 39.5552 56.5588 41.7354 56.5588C43.9155 56.5588 45.6814 54.7989 45.6816 52.6213C45.6816 50.4436 43.9156 48.6839 41.7354 48.6838ZM70.3252 48.6838C68.1451 48.6841 66.3789 50.4437 66.3789 52.6213C66.3791 54.7988 68.1452 56.5586 70.3252 56.5588C72.5054 56.5588 74.2722 54.7989 74.2725 52.6213C74.2725 50.4433 72.5023 48.6838 70.3252 48.6838ZM42.1475 39.5852C41.2128 39.0472 40.016 39.3666 39.4756 40.3C38.9348 41.2344 39.257 42.4294 40.1924 42.968L45.3379 45.929L45.3398 45.9309C45.6453 46.1044 45.9812 46.1907 46.3154 46.1907C46.9883 46.1906 47.6452 45.8398 48.0088 45.2161L48.0098 45.2151C48.5508 44.2807 48.2284 43.0848 47.293 42.5461L42.1475 39.5852Z" fill="#F4F1EC" stroke="#E5E1DA"/>
</svg>
