<svg width="145" height="167" viewBox="0 0 145 167" fill="none" xmlns="http://www.w3.org/2000/svg">
<g clip-path="url(#clip0_251_166)">
<path d="M141.11 44.0301C139.91 39.8501 137.8 33.0801 132.13 35.9601C127.83 38.1401 119.47 47.7601 115.14 51.5101C98.71 65.7401 81.03 78.5201 61.86 88.8601C58.44 92.7701 62.63 102.25 64.6 106.5C65.18 107.75 65.7 108.82 66.21 109.76C66.21 109.76 66.23 109.8 66.27 109.86C66.76 110.76 67.24 111.52 67.72 112.17C70.32 116.19 75.9 124.29 81.43 128.95C90.32 137.53 107.96 148.72 118.18 149.95C124.32 150.69 127.27 142.5 129.72 137.57C142.97 110.88 149.43 73.0201 141.11 44.0301Z" fill="#84C369"/>
<path d="M46.8499 104.46C38.9199 97.4801 18.1999 82.4301 8.80987 78.6901C7.04987 77.9901 5.85987 77.6801 3.90987 78.1201C1.06987 78.7601 0.449869 82.1601 0.229869 84.6601C-1.11013 99.9201 3.54987 127.24 11.4799 140.48C21.8699 157.84 42.0899 164.58 61.5199 166.37C68.0899 166.98 77.2299 168.72 76.8799 159.35C76.1499 139.68 61.2099 117.09 46.8599 104.47L46.8499 104.46Z" fill="#3C5F2F"/>
<path d="M24.2999 71.49C25.9499 72.56 30.6699 75.97 32.1999 73.9C33.5099 72.13 30.7499 62.69 30.3299 59.71C29.4699 53.5 28.9299 47.2 28.5899 40.95C29.7499 39.34 37.9399 41.89 40.2099 42.18C53.5099 43.86 76.0599 37.65 83.0799 25.22C86.8699 18.52 85.6999 15.57 80.0199 10.66C70.6799 2.56002 53.6899 -1.13998 41.5899 0.310024C33.4499 1.28002 27.6799 5.93002 22.2599 11.61C17.0999 17.02 3.50992 35.07 2.82992 42.01C1.96992 50.81 17.1799 66.86 24.2999 71.49Z" fill="#3C5F2F"/>
<path d="M65.1599 55.1C62.9999 55.67 62.4099 59.7 57.0099 57.92C55.4599 57.41 50.9999 52.79 49.4999 58.03C47.1099 66.41 68.1699 67.29 69.1499 59.74C69.4799 57.22 67.6299 54.45 65.1499 55.1H65.1599Z" fill="#3C5F2F"/>
</g>
<defs>
<clipPath id="clip0_251_166">
<rect width="144.82" height="166.9" fill="white"/>
</clipPath>
</defs>
</svg>
