<svg width="178" height="41" viewBox="0 0 178 41" fill="none" xmlns="http://www.w3.org/2000/svg">
<g clip-path="url(#clip0_251_168)">
<path d="M48.6899 31.0498C48.8099 30.1798 49.5599 29.6198 50.3599 29.7398C53.1799 30.0198 57.5799 30.1798 62.1799 30.2198V24.3898C62.1799 23.7898 62.8099 23.0398 63.7299 23.0398C64.6499 23.0398 65.4399 23.6698 65.4399 24.3498V30.2198C70.0399 30.2198 74.4399 30.0598 77.2199 29.7398C78.0899 29.6198 78.8899 30.2598 78.9299 31.0498C79.0099 31.8398 78.3399 32.5998 77.5799 32.7198C72.9799 33.3098 55.4099 33.4698 50.0599 32.7198C49.2299 32.5998 48.5899 31.8498 48.7099 31.0498H48.6899ZM65.5499 8.99981V10.7498C65.5499 18.3998 59.1699 23.1198 53.1799 24.3098C52.4299 24.4698 51.5499 23.9498 51.3899 23.2398C51.2699 22.6098 51.5499 21.6098 52.3799 21.3798C57.5799 20.1098 62.2999 16.8598 62.2999 10.4698V8.99981H53.4999C52.8699 8.99981 52.1899 8.24981 52.1899 7.52981C52.1899 6.80981 52.8199 6.05981 53.4599 6.05981H74.0799C74.6699 6.05981 75.4299 6.68981 75.4299 7.52981C75.4299 8.23981 74.7999 8.99981 74.1599 8.99981H65.5499ZM75.6199 21.1298C76.2199 21.4498 76.6099 22.3198 76.1399 23.1898C75.6599 24.0598 74.4699 24.0998 73.7999 23.6698L66.2299 19.4298C65.7499 19.1498 65.1999 18.2398 65.7099 17.3698C66.1899 16.5798 67.1399 16.4198 67.8899 16.8098L75.6199 21.1298Z" fill="#3C5F2F"/>
<path d="M98.6998 8.08985C98.6998 16.1798 91.9198 20.2598 83.6698 20.7798C82.8798 20.8198 82.0398 20.1498 81.9998 19.4298C81.8798 18.7998 82.5498 17.7998 83.3898 17.7598C90.0098 17.2398 95.2498 14.4698 95.5298 8.87985C95.5298 8.00985 95.4898 7.40985 93.6298 7.40985H83.5598C82.9598 7.40985 82.2898 6.65985 82.2898 5.93985C82.2898 5.21985 82.9198 4.46985 83.5998 4.46985H95.1398C97.5198 4.46985 98.7098 6.24985 98.7098 8.07985L98.6998 8.08985ZM107.39 23.3898C108.42 23.3898 109.33 24.4598 109.45 25.5698C109.77 27.9898 109.69 32.9098 109.29 35.2098C109.17 35.8398 108.34 36.4398 107.47 36.2798C106.6 36.1198 106.12 35.3298 106.24 34.7298C106.48 33.0198 106.72 28.8598 106.4 26.9998C106.36 26.6798 106.16 26.2898 105.61 26.2898H86.6498C86.0598 26.2898 85.3398 25.7398 85.3398 24.8598C85.3398 23.9798 85.9698 23.3898 86.6098 23.3898H107.39ZM109.41 11.2198H112.66C113.25 11.2198 114.01 11.8498 114.01 12.6898C114.01 13.3998 113.38 14.1598 112.7 14.1598H109.41C109.37 16.2598 109.25 18.3198 109.09 20.0698C109.05 20.8598 108.1 21.4198 107.31 21.3398C106.48 21.2998 105.84 20.6298 105.88 19.7898C106.28 14.9098 106.24 10.5098 105.88 5.54985C105.84 4.71985 106.43 4.11985 107.27 3.99985C108.1 3.91985 108.98 4.39985 109.09 5.26985C109.29 7.08985 109.41 9.11985 109.41 11.2198Z" fill="#3C5F2F"/>
<path d="M121.39 11.4198C122.66 11.9398 127.26 12.3698 130.59 12.3698C133.92 12.3698 137.25 11.8498 139.95 10.9798C140.54 10.7398 141.5 11.1398 141.74 11.9298C142.02 12.7198 141.62 13.4798 141.11 13.7198C138.53 14.8298 134.69 15.2698 131.28 15.3398V17.3198C135.88 17.2798 140.28 17.1198 143.06 16.7998C143.89 16.7198 144.73 17.2398 144.77 18.0698C144.85 18.8598 144.18 19.6198 143.42 19.7398C138.82 20.3398 121.25 20.4898 115.9 19.7398C115.07 19.6198 114.43 18.8698 114.55 18.0698C114.67 17.1998 115.42 16.7198 116.22 16.7998C119.04 17.0798 123.44 17.2398 128.04 17.2798V15.2998C124.99 15.1798 121.73 14.8598 120.11 14.1898C119.16 13.7898 118.29 13.1598 118.05 12.0098C117.69 10.2598 117.77 7.88983 118.01 6.21983C118.17 5.14983 119.04 4.07983 120.03 4.07983H139.5C140.05 4.07983 140.85 4.66983 140.85 5.50983C140.85 6.21983 140.22 6.97983 139.58 6.97983H121.66C121.1 6.97983 120.99 7.37983 120.99 7.68983C120.95 8.47983 120.83 9.82983 121.11 11.0998C121.15 11.2598 121.23 11.3398 121.43 11.4198H121.39ZM120.56 32.2398C120.6 32.3998 120.68 32.4798 120.88 32.5598C122.15 33.0798 127.34 33.3898 130.71 33.3898C134.08 33.3898 137.81 32.8698 140.51 31.9998C141.1 31.7598 142.06 32.1198 142.29 32.9098C142.57 33.6998 142.17 34.4198 141.66 34.6598C138.81 35.8898 134.01 36.2498 130.4 36.2798C126.83 36.2798 121.64 36.0798 119.57 35.2498C118.62 34.8498 117.75 34.2198 117.51 33.0698C117.15 31.4398 117.39 29.5798 117.55 28.8698C117.71 28.2798 118.26 27.3998 119.1 27.3998H138.49C138.57 27.1198 138.65 26.4098 138.61 25.8498C138.61 25.6098 138.41 25.2198 137.86 25.2198H119.26C118.67 25.2198 117.95 24.5098 117.95 23.7098C117.95 22.9998 118.58 22.2798 119.26 22.2798H139.45C140.48 22.2798 141.35 22.8698 141.55 23.9498C141.79 25.0598 141.79 27.5998 141.47 28.7898C141.27 29.4998 140.6 30.3398 139.37 30.3398H120.49C120.45 30.7398 120.41 31.4898 120.57 32.2398H120.56Z" fill="#3C5F2F"/>
<path d="M153.56 10.1098C153.6 10.6298 153.64 11.2198 153.72 11.8598C153.76 12.0198 153.76 12.2198 154.08 12.3798C155.27 12.9398 158.92 13.3298 162.17 13.3298C165.42 13.3298 169.07 12.9298 170.26 12.3798C170.58 12.2198 170.58 11.9798 170.62 11.7098C170.9 9.20982 170.82 7.54982 170.42 5.16982C170.26 4.33982 170.97 3.57982 171.85 3.45982C172.68 3.37982 173.56 3.85982 173.67 4.68982C174.07 7.18982 174.15 10.3598 173.71 12.9398C173.51 14.0498 172.8 14.6798 171.61 15.1198C170.1 15.7098 167.01 16.1098 163.8 16.2298V19.2798C168.4 19.2398 172.8 19.1198 175.58 18.7598C176.41 18.6798 177.25 19.1998 177.29 20.0298C177.37 20.8198 176.7 21.5798 175.94 21.6998C171.34 22.2898 153.77 22.4498 148.42 21.6998C147.59 21.5798 146.95 20.8298 147.07 20.0298C147.19 19.1598 147.94 18.6798 148.74 18.7598C151.56 19.0398 155.96 19.1998 160.56 19.2398V16.2298C157.39 16.1098 154.25 15.7098 152.71 15.1198C151.56 14.6798 150.85 14.0498 150.65 12.9398C150.21 10.0398 150.29 7.14982 150.69 4.68982C150.81 3.85982 151.68 3.37982 152.48 3.45982C153.39 3.57982 154.11 4.32982 153.95 5.16982C153.79 5.95982 153.71 6.59982 153.63 7.26982H167.87C168.43 7.26982 169.22 7.86982 169.22 8.69982C169.22 9.40982 168.59 10.1298 167.91 10.1298H153.59L153.56 10.1098ZM162.04 36.2798C158.43 36.2798 154.07 35.9598 152.01 35.1298C151.06 34.7298 150.19 34.0998 149.95 32.9498C149.55 31.1298 149.67 28.7098 149.95 26.6398C150.07 25.5298 150.98 24.4598 152.01 24.4598H172.35C173.38 24.4598 174.29 25.5298 174.41 26.6398C174.69 28.6998 174.81 31.1198 174.41 32.9498C174.17 34.0598 173.34 34.8098 172.31 35.1298C169.45 36.0398 165.61 36.2398 162.04 36.2798ZM153.64 27.3598C153.12 27.3598 152.97 27.7598 152.93 28.0298C152.73 29.5398 152.77 30.7298 153.01 31.9898C153.05 32.1498 153.13 32.2298 153.33 32.3098C154.6 32.8298 159.04 33.2598 162.37 33.2598C165.7 33.2598 169.19 33.0598 171.05 32.3498C171.25 32.2698 171.33 32.1898 171.37 31.8698C171.65 30.3598 171.57 29.0198 171.45 28.0198C171.41 27.7398 171.25 27.3498 170.7 27.3498H153.65L153.64 27.3598Z" fill="#3C5F2F"/>
<path d="M34.09 10.64C33.8 9.62999 33.29 7.98999 31.92 8.68999C30.88 9.21999 28.86 11.54 27.81 12.45C23.84 15.89 19.57 18.98 14.94 21.47C14.11 22.42 15.13 24.7 15.6 25.73C15.74 26.03 15.87 26.29 15.99 26.52C15.99 26.52 15.99 26.52 16 26.54C16.12 26.76 16.23 26.94 16.35 27.1C16.98 28.07 18.33 30.03 19.66 31.15C21.81 33.22 26.07 35.93 28.54 36.22C30.02 36.4 30.74 34.42 31.33 33.23C34.53 26.78 36.09 17.63 34.08 10.63L34.09 10.64Z" fill="#84C369"/>
<path d="M11.3201 25.2398C9.4001 23.5498 4.4001 19.9198 2.13011 19.0098C1.7001 18.8398 1.4201 18.7698 0.950105 18.8698C0.260105 19.0198 0.120105 19.8398 0.0601048 20.4498C-0.259895 24.1398 0.860105 30.7398 2.7801 33.9398C5.2901 38.1298 10.1801 39.7598 14.8701 40.1898C16.4601 40.3398 18.6601 40.7598 18.5801 38.4898C18.4001 33.7398 14.7901 28.2798 11.3301 25.2298L11.3201 25.2398Z" fill="#3C5F2F"/>
<path d="M5.87026 17.2699C6.27026 17.5299 7.41026 18.3499 7.78026 17.8499C8.10026 17.4199 7.43026 15.1399 7.33026 14.4199C7.12026 12.9199 6.99026 11.3999 6.91026 9.88991C7.19026 9.49991 9.17026 10.1199 9.72026 10.1899C12.9303 10.5899 18.3803 9.09991 20.0803 6.08991C20.9903 4.46991 20.7103 3.75991 19.3403 2.56991C17.0803 0.619908 12.9703 -0.280092 10.0503 0.0699078C8.08026 0.309908 6.69026 1.42991 5.38026 2.79991C4.13026 4.10991 0.850262 8.46991 0.690262 10.1399C0.480262 12.2699 4.16026 16.1399 5.88026 17.2599L5.87026 17.2699Z" fill="#3C5F2F"/>
<path d="M15.7401 13.3099C15.2201 13.4499 15.0801 14.4199 13.7701 13.9899C13.3901 13.8699 12.3201 12.7499 11.9601 14.0199C11.3801 16.0399 16.4701 16.2599 16.7101 14.4299C16.7901 13.8199 16.3401 13.1499 15.7401 13.3099Z" fill="#3C5F2F"/>
</g>
<defs>
<clipPath id="clip0_251_168">
<rect width="177.28" height="40.32" fill="white"/>
</clipPath>
</defs>
</svg>
