<svg width="236" height="253" viewBox="0 0 236 253" fill="none" xmlns="http://www.w3.org/2000/svg">
<g clip-path="url(#clip0_251_167)">
<path d="M0.0298189 242.56C0.249819 240.96 1.62982 239.95 3.07982 240.16C8.23982 240.67 16.2998 240.96 24.7198 241.03V230.36C24.7198 229.27 25.8798 227.89 27.5498 227.89C29.2198 227.89 30.6698 229.05 30.6698 230.29V241.04C39.0898 241.04 47.1498 240.75 52.2398 240.17C53.8398 239.95 55.2898 241.11 55.3598 242.57C55.5098 244.02 54.2698 245.4 52.8898 245.62C44.4698 246.71 12.2998 247 2.48982 245.62C0.969819 245.4 -0.200181 244.02 0.0198189 242.57L0.0298189 242.56ZM30.8898 202.18V205.38C30.8898 219.39 19.1998 228.04 8.22982 230.21C6.84982 230.5 5.24982 229.56 4.95982 228.25C4.73982 227.09 5.24982 225.27 6.77982 224.84C16.2898 222.52 24.9298 216.56 24.9298 204.87V202.18H8.80982C7.64982 202.18 6.40982 200.8 6.40982 199.49C6.40982 198.18 7.56982 196.8 8.72982 196.8H46.4898C47.5798 196.8 48.9598 197.96 48.9598 199.49C48.9598 200.8 47.7998 202.18 46.6398 202.18H30.8798H30.8898ZM49.3298 224.4C50.4198 224.98 51.1498 226.58 50.2698 228.18C49.3998 229.78 47.2198 229.85 45.9898 229.05L32.1198 221.28C31.2498 220.77 30.2298 219.1 31.1798 217.5C32.0498 216.05 33.7898 215.76 35.1698 216.48L49.3298 224.4Z" fill="#3C5F2F"/>
<path d="M91.5998 200.51C91.5998 215.32 79.1798 222.8 64.0798 223.75C62.6298 223.82 61.0998 222.59 61.0298 221.28C60.8098 220.12 62.0498 218.3 63.5698 218.23C75.6998 217.29 85.2798 212.2 85.7898 201.96C85.7898 200.36 85.7198 199.27 82.2998 199.27H63.8598C62.7698 199.27 61.5398 197.89 61.5398 196.58C61.5398 195.27 62.6998 193.89 63.9398 193.89H85.0698C89.4298 193.89 91.6098 197.16 91.6098 200.5L91.5998 200.51ZM107.5 228.54C109.39 228.54 111.06 230.5 111.28 232.53C111.86 236.96 111.72 245.96 110.99 250.18C110.77 251.34 109.25 252.43 107.65 252.14C106.05 251.85 105.18 250.4 105.4 249.31C105.84 246.19 106.27 238.56 105.69 235.15C105.62 234.57 105.25 233.84 104.24 233.84H69.5298C68.4398 233.84 67.1298 232.82 67.1298 231.23C67.1298 229.64 68.2898 228.54 69.4498 228.54H107.5ZM111.2 206.25H117.15C118.24 206.25 119.62 207.41 119.62 208.94C119.62 210.25 118.46 211.63 117.22 211.63H111.19C111.12 215.48 110.9 219.25 110.61 222.45C110.54 223.9 108.79 224.92 107.34 224.77C105.82 224.7 104.65 223.46 104.73 221.94C105.46 213.01 105.38 204.95 104.73 195.87C104.66 194.34 105.75 193.26 107.27 193.04C108.79 192.9 110.39 193.77 110.61 195.36C110.97 198.7 111.19 202.4 111.19 206.25H111.2Z" fill="#3C5F2F"/>
<path d="M133.13 206.61C135.45 207.55 143.88 208.35 149.98 208.35C156.08 208.35 162.18 207.41 167.12 205.81C168.21 205.37 169.95 206.1 170.39 207.55C170.9 209 170.17 210.38 169.23 210.82C164.51 212.85 157.47 213.65 151.22 213.8V217.43C159.64 217.36 167.7 217.07 172.79 216.49C174.32 216.35 175.84 217.29 175.91 218.81C176.05 220.26 174.82 221.64 173.44 221.86C165.02 222.95 132.85 223.24 123.04 221.86C121.52 221.64 120.35 220.26 120.57 218.81C120.79 217.21 122.17 216.34 123.62 216.49C128.78 217 136.84 217.29 145.26 217.36V213.73C139.67 213.51 133.71 212.93 130.74 211.7C129 210.97 127.4 209.81 126.96 207.71C126.31 204.51 126.45 200.16 126.89 197.11C127.18 195.15 128.78 193.19 130.59 193.19H166.24C167.26 193.19 168.71 194.28 168.71 195.8C168.71 197.11 167.55 198.49 166.39 198.49H133.57C132.55 198.49 132.34 199.22 132.34 199.8C132.27 201.25 132.05 203.72 132.56 206.05C132.63 206.34 132.78 206.49 133.14 206.63L133.13 206.61ZM131.61 244.74C131.68 245.03 131.83 245.18 132.19 245.32C134.51 246.26 144.03 246.85 150.2 246.85C156.37 246.85 163.2 245.91 168.14 244.31C169.23 243.87 170.97 244.53 171.41 245.98C171.92 247.43 171.19 248.74 170.25 249.18C165.02 251.43 156.23 252.08 149.63 252.16C143.09 252.16 133.58 251.8 129.81 250.27C128.07 249.54 126.47 248.38 126.03 246.28C125.38 243.3 125.81 239.89 126.1 238.58C126.39 237.49 127.41 235.89 128.93 235.89H164.44C164.59 235.38 164.73 234.07 164.66 233.06C164.66 232.62 164.3 231.9 163.28 231.9H129.22C128.13 231.9 126.82 230.59 126.82 229.14C126.82 227.83 127.98 226.53 129.22 226.53H166.18C168.07 226.53 169.67 227.62 170.03 229.58C170.47 231.61 170.47 236.26 169.88 238.44C169.52 239.75 168.28 241.27 166.03 241.27H131.46C131.39 242 131.31 243.38 131.61 244.76V244.74Z" fill="#3C5F2F"/>
<path d="M192.02 204.22C192.09 205.16 192.17 206.25 192.31 207.42C192.38 207.71 192.38 208.07 192.96 208.36C195.14 209.38 201.82 210.1 207.77 210.1C213.72 210.1 220.41 209.37 222.58 208.36C223.16 208.07 223.16 207.63 223.23 207.13C223.74 202.56 223.59 199.51 222.87 195.15C222.58 193.62 223.89 192.25 225.48 192.03C227.01 191.89 228.6 192.76 228.82 194.28C229.55 198.85 229.69 204.66 228.89 209.38C228.53 211.41 227.22 212.58 225.04 213.37C222.28 214.46 216.62 215.19 210.73 215.4V220.99C219.15 220.92 227.21 220.7 232.3 220.05C233.82 219.9 235.35 220.85 235.42 222.37C235.57 223.82 234.33 225.2 232.95 225.42C224.53 226.51 192.36 226.8 182.55 225.42C181.02 225.2 179.86 223.82 180.08 222.37C180.3 220.77 181.68 219.9 183.13 220.05C188.29 220.56 196.35 220.85 204.77 220.92V215.4C198.96 215.18 193.22 214.46 190.39 213.37C188.28 212.57 186.98 211.41 186.61 209.38C185.81 204.08 185.96 198.78 186.68 194.28C186.9 192.75 188.5 191.88 189.95 192.03C191.62 192.25 192.93 193.63 192.64 195.15C192.35 196.6 192.2 197.76 192.06 199H218.13C219.15 199 220.6 200.09 220.6 201.61C220.6 202.92 219.44 204.22 218.2 204.22H191.99H192.02ZM207.56 252.14C200.95 252.14 192.96 251.56 189.19 250.03C187.45 249.3 185.85 248.14 185.41 246.04C184.68 242.7 184.9 238.27 185.41 234.49C185.63 232.46 187.3 230.5 189.19 230.5H226.44C228.33 230.5 230 232.46 230.22 234.49C230.73 238.27 230.95 242.7 230.22 246.04C229.78 248.07 228.26 249.45 226.37 250.03C221.14 251.7 214.1 252.06 207.56 252.14ZM192.17 235.8C191.23 235.8 190.94 236.53 190.86 237.03C190.5 239.79 190.57 241.97 191 244.29C191.07 244.58 191.22 244.73 191.58 244.87C193.9 245.81 202.04 246.61 208.14 246.61C214.24 246.61 220.63 246.25 224.04 244.94C224.4 244.79 224.55 244.65 224.62 244.07C225.13 241.31 224.98 238.84 224.76 237.03C224.69 236.52 224.4 235.8 223.38 235.8H192.15H192.17Z" fill="#3C5F2F"/>
<path d="M186.43 44.0301C185.23 39.8501 183.12 33.0801 177.45 35.9601C173.15 38.1401 164.79 47.7601 160.46 51.5101C144.03 65.7401 126.35 78.5201 107.18 88.8601C103.76 92.7701 107.95 102.25 109.92 106.5C110.5 107.75 111.02 108.82 111.53 109.76C111.53 109.76 111.55 109.8 111.59 109.86C112.08 110.76 112.56 111.52 113.04 112.17C115.64 116.19 121.22 124.29 126.75 128.95C135.64 137.53 153.28 148.72 163.5 149.95C169.64 150.69 172.59 142.5 175.04 137.57C188.29 110.88 194.75 73.0201 186.43 44.0301Z" fill="#84C369"/>
<path d="M92.1799 104.46C84.2499 97.4801 63.5299 82.4301 54.1399 78.6901C52.3799 77.9901 51.1899 77.6801 49.2399 78.1201C46.3999 78.7601 45.7799 82.1601 45.5599 84.6601C44.2199 99.9201 48.8799 127.24 56.8099 140.48C67.1999 157.84 87.4199 164.58 106.85 166.37C113.42 166.98 122.56 168.72 122.21 159.35C121.48 139.68 106.54 117.09 92.1899 104.47L92.1799 104.46Z" fill="#3C5F2F"/>
<path d="M69.63 71.49C71.28 72.56 76 75.97 77.53 73.9C78.84 72.13 76.08 62.69 75.66 59.71C74.8 53.5 74.26 47.2 73.92 40.95C75.08 39.34 83.27 41.89 85.54 42.18C98.84 43.86 121.39 37.65 128.41 25.22C132.2 18.52 131.03 15.57 125.35 10.66C116.01 2.56002 99.02 -1.13998 86.92 0.310024C78.78 1.28002 73.01 5.93002 67.59 11.61C62.43 17.02 48.84 35.07 48.16 42.01C47.3 50.81 62.51 66.86 69.63 71.49Z" fill="#3C5F2F"/>
<path d="M110.49 55.1C108.33 55.67 107.74 59.7 102.34 57.92C100.79 57.41 96.33 52.79 94.83 58.03C92.44 66.41 113.5 67.29 114.48 59.74C114.81 57.22 112.96 54.45 110.48 55.1H110.49Z" fill="#3C5F2F"/>
</g>
<defs>
<clipPath id="clip0_251_167">
<rect width="235.46" height="252.19" fill="white"/>
</clipPath>
</defs>
</svg>
