<svg width="24" height="24" viewBox="0 0 24 24" fill="none" xmlns="http://www.w3.org/2000/svg">
<path d="M11.5 15C13.9818 15 16 12.7575 16 10C16 7.2425 13.9818 5 11.5 5C9.01825 5 7 7.2425 7 10C7 12.7575 9.01825 15 11.5 15ZM11.5 7.5C12.7409 7.5 13.75 8.62125 13.75 10C13.75 11.3787 12.7409 12.5 11.5 12.5C10.2591 12.5 9.25 11.3787 9.25 10C9.25 8.62125 10.2591 7.5 11.5 7.5Z" fill="#111111"/>
<path d="M10.8113 23.777C11.0122 23.922 11.253 24 11.5 24C11.747 24 11.9878 23.922 12.1887 23.777C12.5497 23.519 21.0343 17.3281 20.9999 9.60008C20.9999 4.30683 16.738 0 11.5 0C6.262 0 2.0001 4.30683 2.0001 9.59408C1.96567 17.3281 10.4503 23.519 10.8113 23.777ZM11.5 2.40002C15.4294 2.40002 18.6249 5.62925 18.6249 9.60608C18.6499 14.9317 13.4142 19.7138 11.5 21.2822C9.58696 19.7126 4.35014 14.9293 4.37508 9.60008C4.37508 5.62924 7.57061 2.40002 11.5 2.40002Z" fill="#111111"/>
</svg>
