<svg width="24" height="24" viewBox="0 0 24 24" fill="none" xmlns="http://www.w3.org/2000/svg">
<g clip-path="url(#clip0_436_2272)">
<path d="M20.2105 10.1053V6.31579C20.2105 4.92253 19.0775 3.78947 17.6842 3.78947H13.8947C13.8947 1.70021 12.1945 0 10.1053 0C8.016 0 6.31579 1.70021 6.31579 3.78947H2.52632C1.13305 3.78947 0 4.92253 0 6.31579V11.2181L0.832421 11.52C1.84547 11.8863 2.52632 12.8413 2.52632 13.8947C2.52632 14.9482 1.84547 15.9032 0.832421 16.2695L0 16.5714V21.4737C0 22.8669 1.13305 24 2.52632 24H7.42863L7.73053 23.1676C8.09684 22.1545 9.05179 21.4737 10.1053 21.4737C11.1587 21.4737 12.1137 22.1545 12.48 23.1676L12.7819 24H17.6842C19.0775 24 20.2105 22.8669 20.2105 21.4737V17.6842C22.2998 17.6842 24 15.984 24 13.8947C24 11.8055 22.2998 10.1053 20.2105 10.1053ZM20.2105 15.1579H17.6842L17.6804 21.4737H14.4657C13.5676 19.9326 11.9116 18.9474 10.1053 18.9474C8.29895 18.9474 6.64295 19.9326 5.74484 21.4737H2.52632V18.2552C4.06737 17.3571 5.05263 15.7011 5.05263 13.8947C5.05263 12.0884 4.06737 10.4324 2.52632 9.53432V6.31579H8.8421V3.78947C8.8421 3.45446 8.97519 3.13317 9.21208 2.89629C9.44896 2.6594 9.77025 2.52632 10.1053 2.52632C10.4403 2.52632 10.7616 2.6594 10.9985 2.89629C11.2353 3.13317 11.3684 3.45446 11.3684 3.78947V6.31579H17.6842V12.6316H20.2105C20.5455 12.6316 20.8668 12.7647 21.1037 13.0015C21.3406 13.2384 21.4737 13.5597 21.4737 13.8947C21.4737 14.2297 21.3406 14.551 21.1037 14.7879C20.8668 15.0248 20.5455 15.1579 20.2105 15.1579Z" fill="#111111"/>
</g>
<defs>
<clipPath id="clip0_436_2272">
<rect width="24" height="24" fill="white"/>
</clipPath>
</defs>
</svg>
